<svg width="375" height="280" viewBox="0 0 375 280" fill="none" xmlns="http://www.w3.org/2000/svg">
<path d="M375 245.8H0V245.988H375V245.8Z" fill="#E6E6E6"/>
<path d="M285.803 251.5H272.415V251.688H285.803V251.5Z" fill="#E6E6E6"/>
<path d="M326.595 251.41H293.917V251.597H326.595V251.41Z" fill="#E6E6E6"/>
<path d="M232.253 254.695H183.525V254.883H232.253V254.695Z" fill="#E6E6E6"/>
<path d="M179.205 254.695H170.79V254.883H179.205V254.695Z" fill="#E6E6E6"/>
<path d="M102.585 251.222H71.085V251.41H102.585V251.222Z" fill="#E6E6E6"/>
<path d="M129.112 251.222H106.747V251.41H129.112V251.222Z" fill="#E6E6E6"/>
<path d="M76.875 254.605H50.1675V254.792H76.875V254.605Z" fill="#E6E6E6"/>
<path d="M89.4 245.8H73.5C65.205 231.31 60.5925 192.482 72.255 150.295C74.2514 143.081 76.6706 135.992 79.5 129.062C83.88 188.32 102.9 228.25 89.4 245.8Z" fill="#F0F0F0"/>
<path d="M60 245.8H75.915C83.3025 235.09 85.4775 206.395 71.1675 175.21C68.6717 169.789 65.8101 164.545 62.6025 159.512C61.92 203.312 45.4125 232.81 60 245.8Z" fill="#F5F5F5"/>
<path d="M260.303 186.16C244.163 161.133 245.993 234.873 216.33 202.105C179.895 161.853 127.605 148.36 150.458 179.178C173.31 209.995 159.75 220.66 102 186.16C60.165 161.14 137.31 236.148 116.183 233.298C95.055 230.448 63.15 224.613 90.48 245.8H267.75C267.75 245.8 276.45 211.188 260.303 186.16Z" fill="#F0F0F0"/>
<path d="M293.82 245.988H307.132C314.07 234.948 317.925 205.368 308.175 173.238C306.5 167.723 304.479 162.32 302.122 157.06C298.432 202.195 282.517 232.593 293.82 245.988Z" fill="#EBEBEB"/>
<path d="M318.397 245.987H305.085C298.905 237.827 297.082 215.988 309.06 192.213C311.158 188.058 313.551 184.061 316.223 180.25C316.8 213.618 330.615 236.087 318.397 245.987Z" fill="#EBEBEB"/>
<path d="M284.25 245.988H295.26C300.367 239.238 301.875 221.155 291.967 201.505C290.234 198.069 288.254 194.763 286.043 191.613C285.54 219.25 274.117 237.798 284.25 245.988Z" fill="#EBEBEB"/>
<path d="M104.25 245.8C104.25 245.8 103.5 240.4 95.3475 237.617C96.3232 238.728 97.0588 240.028 97.508 241.436C97.9571 242.844 98.1102 244.33 97.9575 245.8H104.25Z" fill="#FAFAFA"/>
<path d="M143.1 245.8C143.1 245.8 143.85 240.4 152.002 237.617C151.029 238.729 150.294 240.029 149.845 241.437C149.396 242.845 149.242 244.33 149.392 245.8H143.1Z" fill="#E6E6E6"/>
<path d="M247.268 245.8C247.268 245.8 247.785 235.3 253.44 229.907C252.013 235.079 251.401 240.44 251.625 245.8H247.268Z" fill="#E6E6E6"/>
<path d="M325.395 245.8C325.395 245.8 328.028 238.255 340.23 234.37C334.418 239.838 334.185 245.8 334.185 245.8H325.395Z" fill="#E6E6E6"/>
<path d="M50.6025 245.8C50.6025 245.8 48.5325 234.707 63.42 229C59.175 237.04 63.5175 245.8 63.5175 245.8H50.6025Z" fill="#EBEBEB"/>
<path d="M58.875 245.8C58.875 245.8 54.675 236.74 39.4725 232.075C47.22 238.637 48.3225 245.8 48.3225 245.8H58.875Z" fill="#EBEBEB"/>
<path d="M108.9 245.8C108.9 245.8 108.353 236.725 98.4 233.44C102.84 238.09 102.585 245.8 102.585 245.8H108.9Z" fill="#FAFAFA"/>
<path d="M195.9 245.8C195.9 245.8 194.648 236.8 181.005 232.12C182.637 233.976 183.867 236.149 184.62 238.503C185.372 240.858 185.63 243.342 185.378 245.8H195.9Z" fill="#FAFAFA"/>
<path d="M196.29 245.8C196.29 245.8 197.542 236.8 211.185 232.12C209.553 233.976 208.322 236.149 207.57 238.503C206.818 240.858 206.56 243.342 206.812 245.8H196.29Z" fill="#FAFAFA"/>
<path d="M203.738 245.8C203.738 245.8 202.823 230.635 186.218 225.13C193.643 232.907 193.215 245.8 193.215 245.8H203.738Z" fill="#FAFAFA"/>
<path d="M297.435 245.8C297.435 245.8 296.797 241.877 304.935 239.095C301.59 243.01 303.705 245.8 303.705 245.8H297.435Z" fill="#FAFAFA"/>
<path d="M297.202 245.8C297.202 245.8 296.452 240.4 288.3 237.617C289.276 238.728 290.011 240.028 290.46 241.436C290.91 242.844 291.063 244.33 290.91 245.8H297.202Z" fill="#FAFAFA"/>
<path d="M292.755 245.8C292.755 245.8 293.295 236.725 303.255 233.44C298.823 238.09 299.07 245.8 299.07 245.8H292.755Z" fill="#FAFAFA"/>
<path d="M326.565 37.0001C324.608 33.5801 320.663 30.9326 317.745 31.0976C317.284 31.0978 316.829 31.2098 316.42 31.424C316.011 31.6382 315.66 31.9482 315.398 32.3276C310.073 28.0676 303.945 25.4501 298.898 25.7351C296.671 25.7569 294.539 26.6352 292.943 28.1876C287.228 21.7601 279.938 17.2001 274.65 17.2001C271.65 17.2001 269.783 18.7001 269.115 21.1376C263.25 16.8176 257.22 14.1626 252.36 14.1626C244.613 14.1626 242.093 20.9126 245.265 30.3701C243.998 32.1551 237.885 34.6451 238.133 37.6301H326.91C326.798 37.4201 326.693 37.2101 326.565 37.0001Z" fill="#F5F5F5"/>
<path d="M240.09 72.3026C239.452 72.3169 238.832 72.512 238.301 72.8651C237.77 73.2183 237.35 73.7151 237.09 74.2976C229.837 67.3526 221.655 63.0926 215.07 63.5651C213.58 63.6137 212.12 63.9994 210.8 64.693C209.481 65.3867 208.335 66.3703 207.45 67.5701C199.567 57.1076 189.742 49.6901 182.82 49.6901C178.882 49.6901 176.542 52.0901 175.845 56.0951C167.887 49.0601 159.832 44.7476 153.472 44.7476C145.59 44.7476 142.11 51.3776 143.197 61.5851C139.395 58.5851 135.697 56.8676 132.622 56.8676C128.415 56.8676 126.442 60.2201 126.78 65.4776C126.413 65.4786 126.048 65.5062 125.685 65.5601C119.257 66.4376 116.797 73.2326 119.887 81.0026H251.542C248.655 75.8726 243.69 72.0476 240.09 72.3026Z" fill="#F5F5F5"/>
<path d="M112.207 39.6174C111.89 39.6176 111.579 39.7097 111.313 39.8828C111.047 40.0558 110.837 40.3023 110.707 40.5924C107.175 37.2099 103.207 35.1324 99.975 35.3424C99.2422 35.3617 98.5234 35.5481 97.8735 35.8873C97.2236 36.2265 96.6598 36.7097 96.225 37.2999C92.3775 32.1999 87.585 28.5849 84.225 28.5849C82.305 28.5849 81.1575 29.7549 80.82 31.7049C76.9425 28.2699 73.0125 26.1699 69.915 26.1699C66.0675 26.1699 64.3725 29.4024 64.8975 34.4199C63.045 32.9724 61.23 32.1174 59.745 32.1174C57.6975 32.1174 56.745 33.7524 56.9025 36.3174C56.7227 36.306 56.5423 36.306 56.3625 36.3174C53.235 36.7449 52.0275 40.0674 53.535 43.8174H117.727C116.385 41.3649 114 39.4974 112.207 39.6174Z" fill="#F5F5F5"/>
<path d="M187.5 279.67C267.812 279.67 332.918 275.869 332.918 271.18C332.918 266.491 267.812 262.69 187.5 262.69C107.188 262.69 42.0825 266.491 42.0825 271.18C42.0825 275.869 107.188 279.67 187.5 279.67Z" fill="#F5F5F5"/>
<path d="M132.69 82.3076H125.535V271.18H132.69V82.3076Z" fill="#E0E0E0"/>
<g style="mix-blend-mode:multiply">
<path d="M132.69 82.3076H125.535V99.4376H132.69V82.3076Z" fill="#E0E0E0"/>
</g>
<path d="M151.155 17.5527H107.077C102.476 17.5527 98.745 21.2833 98.745 25.8852V86.4027C98.745 91.0046 102.476 94.7352 107.077 94.7352H151.155C155.757 94.7352 159.487 91.0046 159.487 86.4027V25.8852C159.487 21.2833 155.757 17.5527 151.155 17.5527Z" fill="#F29100"/>
<path opacity="0.7" d="M151.155 17.5527H107.077C102.476 17.5527 98.745 21.2833 98.745 25.8852V86.4027C98.745 91.0046 102.476 94.7352 107.077 94.7352H151.155C155.757 94.7352 159.487 91.0046 159.487 86.4027V25.8852C159.487 21.2833 155.757 17.5527 151.155 17.5527Z" fill="white"/>
<path d="M156.367 86.3875V25.885C156.367 23.0021 154.03 20.665 151.147 20.665L107.077 20.665C104.195 20.665 101.857 23.0021 101.857 25.885V86.3875C101.857 89.2705 104.195 91.6075 107.077 91.6075H151.147C154.03 91.6075 156.367 89.2705 156.367 86.3875Z" fill="#F29100"/>
<path d="M113.25 58.2554H119.355C120.202 58.1972 121.04 58.4655 121.695 59.0054C121.959 59.2403 122.168 59.5296 122.309 59.8533C122.45 60.177 122.52 60.5274 122.513 60.8804C122.525 61.4696 122.316 62.0421 121.928 62.4854C121.617 62.8142 121.227 63.0571 120.795 63.1904C121.441 63.3083 122.03 63.6382 122.467 64.1279C122.834 64.6066 123.022 65.198 123 65.8004C123.011 66.3258 122.879 66.8444 122.618 67.3004C122.37 67.7332 122.01 68.0909 121.575 68.3354C121.187 68.5262 120.768 68.6432 120.337 68.6804C119.587 68.7704 119.122 68.8229 118.882 68.8229H113.25V58.2554ZM116.542 62.3879H117.96C118.332 62.4251 118.706 62.3324 119.018 62.1254C119.12 62.0306 119.201 61.9141 119.252 61.7844C119.304 61.6546 119.327 61.5149 119.317 61.3754C119.33 61.2356 119.309 61.0948 119.257 60.9645C119.205 60.8342 119.123 60.718 119.018 60.6254C118.714 60.42 118.348 60.3272 117.982 60.3629H116.55L116.542 62.3879ZM116.542 66.5354H118.2C118.62 66.5729 119.04 66.4671 119.393 66.2354C119.505 66.1352 119.595 66.0113 119.655 65.8726C119.714 65.7339 119.742 65.5838 119.737 65.4329C119.743 65.2895 119.715 65.1468 119.655 65.0164C119.595 64.886 119.505 64.7717 119.393 64.6829C119.037 64.4542 118.613 64.3536 118.192 64.3979H116.542V66.5354Z" fill="#F29100"/>
<path d="M131.198 58.2554H134.453V64.5329C134.456 65.1352 134.357 65.7337 134.16 66.3029C133.969 66.8486 133.656 67.3436 133.245 67.7504C132.88 68.1351 132.434 68.4347 131.94 68.6279C131.216 68.8738 130.455 68.9931 129.69 68.9804C129.129 68.9763 128.568 68.9412 128.01 68.8754C127.488 68.8221 126.98 68.6747 126.51 68.4404C126.08 68.2159 125.7 67.9072 125.393 67.5329C125.077 67.1815 124.839 66.7675 124.695 66.3179C124.509 65.7406 124.408 65.1393 124.395 64.5329V58.2554H127.643V64.6829C127.629 64.9285 127.664 65.1744 127.747 65.4062C127.829 65.6379 127.957 65.851 128.123 66.0329C128.493 66.3449 128.962 66.516 129.446 66.516C129.931 66.516 130.4 66.3449 130.77 66.0329C130.938 65.8508 131.067 65.6366 131.149 65.4033C131.232 65.17 131.266 64.9223 131.25 64.6754L131.198 58.2554Z" fill="#F29100"/>
<path d="M136.042 65.3129L139.14 65.1179C139.173 65.5304 139.315 65.9266 139.552 66.2654C139.723 66.4802 139.943 66.6508 140.194 66.763C140.445 66.8753 140.718 66.9258 140.992 66.9104C141.378 66.9337 141.759 66.8165 142.065 66.5804C142.18 66.4922 142.273 66.3786 142.338 66.2486C142.402 66.1185 142.435 65.9754 142.435 65.8304C142.435 65.6854 142.402 65.5423 142.338 65.4122C142.273 65.2822 142.18 65.1686 142.065 65.0804C141.561 64.7583 140.993 64.5485 140.4 64.4654C139.294 64.288 138.245 63.8511 137.34 63.1904C137.043 62.9415 136.806 62.6289 136.646 62.2757C136.486 61.9225 136.408 61.5379 136.417 61.1504C136.42 60.6026 136.585 60.0677 136.89 59.6129C137.239 59.1027 137.733 58.7083 138.307 58.4804C139.136 58.1698 140.019 58.0295 140.902 58.0679C141.983 57.994 143.059 58.256 143.985 58.8179C144.355 59.1021 144.66 59.4631 144.877 59.8761C145.095 60.2891 145.22 60.7443 145.245 61.2104L142.177 61.3904C142.138 60.9935 141.954 60.6249 141.66 60.3554C141.35 60.1212 140.968 60.0043 140.58 60.0254C140.274 60.0018 139.971 60.0897 139.725 60.2729C139.635 60.342 139.562 60.4305 139.512 60.5318C139.461 60.6331 139.434 60.7446 139.432 60.8579C139.436 60.946 139.46 61.0322 139.502 61.11C139.543 61.1879 139.601 61.2555 139.672 61.3079C140.003 61.519 140.378 61.6524 140.767 61.6979C141.82 61.8868 142.847 62.1989 143.827 62.6279C144.376 62.8835 144.842 63.2891 145.17 63.7979C145.453 64.2683 145.599 64.8088 145.59 65.3579C145.596 66.0242 145.403 66.6771 145.035 67.2329C144.648 67.8103 144.101 68.2615 143.46 68.5304C142.654 68.8495 141.791 69.0001 140.925 68.9729C139.135 68.9729 137.885 68.6279 137.175 67.9379C136.493 67.2281 136.091 66.2958 136.042 65.3129Z" fill="#F29100"/>
<path d="M107.835 78.8128L110.94 78.6253C110.97 79.037 111.11 79.4332 111.345 79.7727C111.517 79.9866 111.737 80.1566 111.987 80.2687C112.238 80.3808 112.511 80.4319 112.785 80.4178C113.173 80.4409 113.556 80.3237 113.865 80.0877C113.979 79.9978 114.071 79.884 114.136 79.7544C114.201 79.6248 114.236 79.4826 114.24 79.3377C114.24 79.1938 114.207 79.0518 114.145 78.9221C114.082 78.7923 113.992 78.6781 113.88 78.5877C113.373 78.2646 112.803 78.0548 112.207 77.9728C111.103 77.792 110.057 77.3525 109.155 76.6902C108.858 76.4429 108.621 76.1316 108.461 75.7796C108.301 75.4277 108.223 75.0442 108.232 74.6578C108.234 74.1098 108.399 73.5747 108.705 73.1203C109.054 72.61 109.548 72.2157 110.122 71.9877C110.95 71.6742 111.833 71.5313 112.717 71.5677C113.797 71.4978 114.873 71.7595 115.8 72.3177C116.169 72.6029 116.473 72.9642 116.69 73.377C116.908 73.7898 117.034 74.2445 117.06 74.7102L113.985 74.8903C113.948 74.4944 113.766 74.126 113.475 73.8552C113.163 73.6199 112.778 73.503 112.387 73.5252C112.083 73.5053 111.782 73.59 111.532 73.7653C111.443 73.8359 111.371 73.9259 111.322 74.0286C111.272 74.1313 111.247 74.2438 111.247 74.3577C111.25 74.4454 111.272 74.5313 111.312 74.6092C111.353 74.6871 111.41 74.755 111.48 74.8078C111.812 75.0161 112.186 75.1493 112.575 75.1977C113.63 75.3881 114.659 75.7002 115.642 76.1277C116.19 76.3854 116.655 76.7905 116.985 77.2977C117.265 77.7696 117.41 78.3091 117.405 78.8577C117.407 79.5246 117.211 80.177 116.842 80.7327C116.459 81.3096 115.913 81.7609 115.275 82.0302C114.466 82.3491 113.601 82.4997 112.732 82.4728C110.94 82.4728 109.732 82.1278 108.982 81.4378C108.296 80.7295 107.889 79.7974 107.835 78.8128Z" fill="#F29100"/>
<path d="M118.305 71.7554H128.25V74.3654H124.927V82.3079H121.665V74.3654H118.342L118.305 71.7554Z" fill="#F29100"/>
<path d="M128.775 77.0429C128.701 76.306 128.792 75.5619 129.041 74.8644C129.29 74.167 129.692 73.5337 130.216 73.0104C130.74 72.4871 131.373 72.0868 132.071 71.8386C132.769 71.5904 133.513 71.5005 134.25 71.5754C134.987 71.5279 135.726 71.6289 136.423 71.8724C137.12 72.1159 137.761 72.4969 138.308 72.9929C138.802 73.5215 139.183 74.1453 139.428 74.8261C139.673 75.507 139.777 76.2306 139.733 76.9529C139.766 77.9881 139.553 79.0166 139.11 79.9529C138.708 80.7337 138.081 81.3762 137.31 81.7979C136.404 82.2631 135.395 82.4903 134.378 82.4579C133.362 82.4901 132.353 82.2954 131.423 81.8879C130.623 81.4951 129.964 80.8669 129.533 80.0879C129.011 79.1594 128.749 78.1075 128.775 77.0429ZM132.03 77.0429C131.959 77.8531 132.168 78.6632 132.623 79.3379C132.833 79.5568 133.085 79.731 133.364 79.85C133.643 79.969 133.943 80.0303 134.246 80.0303C134.55 80.0303 134.85 79.969 135.129 79.85C135.408 79.731 135.66 79.5568 135.87 79.3379C136.326 78.6061 136.527 77.7435 136.44 76.8854C136.508 76.1118 136.295 75.3398 135.84 74.7104C135.637 74.4825 135.385 74.3029 135.104 74.1848C134.822 74.0667 134.518 74.0131 134.213 74.0279C133.913 74.0163 133.615 74.0731 133.341 74.194C133.067 74.3148 132.823 74.4966 132.63 74.7254C132.154 75.4026 131.931 76.2255 132 77.0504L132.03 77.0429Z" fill="#F29100"/>
<path d="M141.443 71.7552H146.858C147.819 71.6806 148.772 71.9847 149.513 72.6027C149.817 72.9187 150.052 73.2946 150.203 73.7065C150.354 74.1185 150.418 74.5574 150.39 74.9952C150.417 75.4559 150.345 75.917 150.18 76.3477C150.014 76.7784 149.759 77.1688 149.43 77.4927C148.603 78.1565 147.554 78.4785 146.498 78.3927H144.75V82.3077H141.48L141.443 71.7552ZM144.713 76.2552H145.5C145.967 76.3025 146.437 76.1859 146.828 75.9252C146.948 75.8229 147.044 75.6952 147.109 75.5512C147.174 75.4072 147.206 75.2506 147.203 75.0927C147.207 74.9366 147.18 74.7812 147.123 74.6356C147.067 74.49 146.981 74.3573 146.873 74.2452C146.517 73.9747 146.071 73.8512 145.628 73.9002H144.75L144.713 76.2552Z" fill="#F29100"/>
<path d="M148.005 30.4753H115.875C115.652 30.4756 115.435 30.5491 115.257 30.6846C115.08 30.8201 114.952 31.01 114.892 31.2253L113.25 36.4978C113.105 36.9638 112.837 37.382 112.474 37.7081C112.111 38.0342 111.666 38.2561 111.187 38.3503L110.175 38.5528C109.896 38.6084 109.644 38.7591 109.464 38.9794C109.283 39.1996 109.185 39.4756 109.185 39.7603V45.0553C109.185 45.1932 109.213 45.3296 109.267 45.4564C109.321 45.5831 109.4 45.6977 109.499 45.793C109.599 45.8883 109.717 45.9625 109.846 46.011C109.975 46.0595 110.112 46.0814 110.25 46.0753H115.83C115.83 44.8679 116.31 43.71 117.163 42.8562C118.017 42.0025 119.175 41.5228 120.382 41.5228C121.59 41.5228 122.748 42.0025 123.602 42.8562C124.455 43.71 124.935 44.8679 124.935 46.0753H138.6C138.648 44.8989 139.149 43.7866 139.998 42.9711C140.847 42.1556 141.979 41.7002 143.156 41.7002C144.334 41.7002 145.465 42.1556 146.315 42.9711C147.164 43.7866 147.665 44.8989 147.712 46.0753H148.027C148.162 46.0763 148.296 46.0507 148.42 45.9999C148.545 45.949 148.658 45.8741 148.754 45.7793C148.849 45.6844 148.925 45.5717 148.977 45.4474C149.028 45.3232 149.055 45.1899 149.055 45.0553V31.4953C149.054 31.3591 149.026 31.2245 148.973 31.0992C148.919 30.9739 148.841 30.8605 148.743 30.7656C148.646 30.6707 148.53 30.5961 148.403 30.5463C148.277 30.4965 148.141 30.4724 148.005 30.4753ZM126.12 36.7753C126.12 37.0227 126.022 37.26 125.848 37.4356C125.674 37.6112 125.437 37.7109 125.19 37.7128H121.68C121.433 37.7089 121.198 37.6087 121.024 37.4335C120.85 37.2583 120.752 37.0221 120.75 36.7753V33.2503C120.752 33.003 120.852 32.7665 121.027 32.5923C121.203 32.4181 121.44 32.3203 121.687 32.3203H125.197C125.442 32.3243 125.676 32.4237 125.848 32.5975C126.02 32.7713 126.118 33.0056 126.12 33.2503V36.7753ZM132.69 36.7753C132.69 37.024 132.591 37.2624 132.415 37.4383C132.24 37.6141 132.001 37.7128 131.752 37.7128H128.25C128.001 37.7128 127.763 37.6141 127.587 37.4383C127.411 37.2624 127.312 37.024 127.312 36.7753V33.2503C127.318 33.0056 127.42 32.7729 127.595 32.6019C127.77 32.4309 128.005 32.3353 128.25 32.3353H131.752C131.997 32.3353 132.232 32.4309 132.408 32.6019C132.583 32.7729 132.684 33.0056 132.69 33.2503V36.7753ZM139.26 36.7753C139.26 37.024 139.161 37.2624 138.985 37.4383C138.81 37.6141 138.571 37.7128 138.322 37.7128H134.82C134.571 37.7128 134.333 37.6141 134.157 37.4383C133.981 37.2624 133.882 37.024 133.882 36.7753V33.2503C133.884 33.003 133.984 32.7665 134.16 32.5923C134.335 32.4181 134.573 32.3203 134.82 32.3203H138.322C138.57 32.3203 138.807 32.4181 138.983 32.5923C139.158 32.7665 139.258 33.003 139.26 33.2503V36.7753ZM145.83 36.7753C145.83 37.024 145.731 37.2624 145.555 37.4383C145.38 37.6141 145.141 37.7128 144.892 37.7128H141.382C141.134 37.7109 140.897 37.6115 140.722 37.4361C140.546 37.2607 140.447 37.0234 140.445 36.7753V33.2503C140.447 33.003 140.547 32.7665 140.722 32.5923C140.898 32.4181 141.135 32.3203 141.382 32.3203H144.892C145.14 32.3203 145.377 32.4181 145.553 32.5923C145.728 32.7665 145.828 33.003 145.83 33.2503V36.7753Z" fill="#F29100"/>
<path d="M120.353 43.3076C119.804 43.3091 119.268 43.4733 118.812 43.7795C118.357 44.0856 118.002 44.52 117.793 45.0276C117.585 45.5352 117.531 46.0933 117.64 46.6313C117.748 47.1694 118.014 47.6631 118.403 48.0501C118.792 48.4372 119.287 48.7001 119.826 48.8057C120.365 48.9114 120.922 48.8549 121.429 48.6435C121.935 48.4321 122.368 48.0753 122.672 47.6181C122.975 47.1609 123.136 46.624 123.135 46.0751C123.134 45.7107 123.061 45.35 122.921 45.0137C122.781 44.6774 122.575 44.3721 122.317 44.1151C122.059 43.8581 121.752 43.6545 121.415 43.516C121.078 43.3774 120.717 43.3066 120.353 43.3076Z" fill="#F29100"/>
<path d="M143.137 43.3076C142.588 43.3076 142.051 43.4706 141.595 43.7758C141.138 44.0811 140.783 44.5149 140.573 45.0224C140.363 45.5299 140.309 46.0883 140.416 46.6268C140.524 47.1653 140.789 47.6597 141.178 48.0475C141.567 48.4353 142.062 48.699 142.601 48.8052C143.139 48.9114 143.698 48.8554 144.205 48.6442C144.712 48.433 145.144 48.0762 145.448 47.6189C145.752 47.1615 145.914 46.6243 145.912 46.0751C145.909 45.341 145.615 44.6383 145.095 44.1199C144.575 43.6016 143.872 43.3096 143.137 43.3076Z" fill="#F29100"/>
<path d="M156.367 86.3875V25.885C156.367 23.0021 154.03 20.665 151.147 20.665L107.077 20.665C104.195 20.665 101.857 23.0021 101.857 25.885V86.3875C101.857 89.2705 104.195 91.6075 107.077 91.6075H151.147C154.03 91.6075 156.367 89.2705 156.367 86.3875Z" fill="#F29100"/>
<path d="M113.25 58.2554H119.355C120.202 58.1972 121.04 58.4655 121.695 59.0054C121.959 59.2403 122.168 59.5296 122.309 59.8533C122.45 60.177 122.52 60.5274 122.513 60.8804C122.525 61.4696 122.316 62.0421 121.928 62.4854C121.617 62.8142 121.227 63.0571 120.795 63.1904C121.441 63.3083 122.03 63.6382 122.467 64.1279C122.834 64.6066 123.022 65.198 123 65.8004C123.011 66.3258 122.879 66.8444 122.618 67.3004C122.37 67.7332 122.01 68.0909 121.575 68.3354C121.187 68.5262 120.768 68.6432 120.337 68.6804C119.587 68.7704 119.122 68.8229 118.882 68.8229H113.25V58.2554ZM116.542 62.3879H117.96C118.332 62.4251 118.706 62.3324 119.018 62.1254C119.12 62.0306 119.201 61.9141 119.252 61.7844C119.304 61.6546 119.327 61.5149 119.317 61.3754C119.33 61.2356 119.309 61.0948 119.257 60.9645C119.205 60.8342 119.123 60.718 119.018 60.6254C118.714 60.42 118.348 60.3272 117.982 60.3629H116.55L116.542 62.3879ZM116.542 66.5354H118.2C118.62 66.5729 119.04 66.4671 119.393 66.2354C119.505 66.1352 119.595 66.0113 119.655 65.8726C119.714 65.7339 119.742 65.5838 119.737 65.4329C119.743 65.2895 119.715 65.1468 119.655 65.0164C119.595 64.886 119.505 64.7717 119.393 64.6829C119.037 64.4542 118.613 64.3536 118.192 64.3979H116.542V66.5354Z" fill="white"/>
<path d="M131.198 58.2554H134.453V64.5329C134.456 65.1352 134.357 65.7337 134.16 66.3029C133.969 66.8486 133.656 67.3436 133.245 67.7504C132.88 68.1351 132.434 68.4347 131.94 68.6279C131.216 68.8738 130.455 68.9931 129.69 68.9804C129.129 68.9763 128.568 68.9412 128.01 68.8754C127.488 68.8221 126.98 68.6747 126.51 68.4404C126.08 68.2159 125.7 67.9072 125.393 67.5329C125.077 67.1815 124.839 66.7675 124.695 66.3179C124.509 65.7406 124.408 65.1393 124.395 64.5329V58.2554H127.643V64.6829C127.629 64.9285 127.664 65.1744 127.747 65.4062C127.829 65.6379 127.957 65.851 128.123 66.0329C128.493 66.3449 128.962 66.516 129.446 66.516C129.931 66.516 130.4 66.3449 130.77 66.0329C130.938 65.8508 131.067 65.6366 131.149 65.4033C131.232 65.17 131.266 64.9223 131.25 64.6754L131.198 58.2554Z" fill="white"/>
<path d="M136.042 65.3129L139.14 65.1179C139.173 65.5304 139.315 65.9266 139.552 66.2654C139.723 66.4802 139.943 66.6508 140.194 66.763C140.445 66.8753 140.718 66.9258 140.992 66.9104C141.378 66.9337 141.759 66.8165 142.065 66.5804C142.18 66.4922 142.273 66.3786 142.338 66.2486C142.402 66.1185 142.435 65.9754 142.435 65.8304C142.435 65.6854 142.402 65.5423 142.338 65.4122C142.273 65.2822 142.18 65.1686 142.065 65.0804C141.561 64.7583 140.993 64.5485 140.4 64.4654C139.294 64.288 138.245 63.8511 137.34 63.1904C137.043 62.9415 136.806 62.6289 136.646 62.2757C136.486 61.9225 136.408 61.5379 136.417 61.1504C136.42 60.6026 136.585 60.0677 136.89 59.6129C137.239 59.1027 137.733 58.7083 138.307 58.4804C139.136 58.1698 140.019 58.0295 140.902 58.0679C141.983 57.994 143.059 58.256 143.985 58.8179C144.355 59.1021 144.66 59.4631 144.877 59.8761C145.095 60.2891 145.22 60.7443 145.245 61.2104L142.177 61.3904C142.138 60.9935 141.954 60.6249 141.66 60.3554C141.35 60.1212 140.968 60.0043 140.58 60.0254C140.274 60.0018 139.971 60.0897 139.725 60.2729C139.635 60.342 139.562 60.4305 139.512 60.5318C139.461 60.6331 139.434 60.7446 139.432 60.8579C139.436 60.946 139.46 61.0322 139.502 61.11C139.543 61.1879 139.601 61.2555 139.672 61.3079C140.003 61.519 140.378 61.6524 140.767 61.6979C141.82 61.8868 142.847 62.1989 143.827 62.6279C144.376 62.8835 144.842 63.2891 145.17 63.7979C145.453 64.2683 145.599 64.8088 145.59 65.3579C145.596 66.0242 145.403 66.6771 145.035 67.2329C144.648 67.8103 144.101 68.2615 143.46 68.5304C142.654 68.8495 141.791 69.0001 140.925 68.9729C139.135 68.9729 137.885 68.6279 137.175 67.9379C136.493 67.2281 136.091 66.2958 136.042 65.3129Z" fill="white"/>
<path d="M107.835 78.8128L110.94 78.6253C110.97 79.037 111.11 79.4332 111.345 79.7727C111.517 79.9866 111.737 80.1566 111.987 80.2687C112.238 80.3808 112.511 80.4319 112.785 80.4178C113.173 80.4409 113.556 80.3237 113.865 80.0877C113.979 79.9978 114.071 79.884 114.136 79.7544C114.201 79.6248 114.236 79.4826 114.24 79.3377C114.24 79.1938 114.207 79.0518 114.145 78.9221C114.082 78.7923 113.992 78.6781 113.88 78.5877C113.373 78.2646 112.803 78.0548 112.207 77.9728C111.103 77.792 110.057 77.3525 109.155 76.6902C108.858 76.4429 108.621 76.1316 108.461 75.7796C108.301 75.4277 108.223 75.0442 108.232 74.6578C108.234 74.1098 108.399 73.5747 108.705 73.1203C109.054 72.61 109.548 72.2157 110.122 71.9877C110.95 71.6742 111.833 71.5313 112.717 71.5677C113.797 71.4978 114.873 71.7595 115.8 72.3177C116.169 72.6029 116.473 72.9642 116.69 73.377C116.908 73.7898 117.034 74.2445 117.06 74.7102L113.985 74.8903C113.948 74.4944 113.766 74.126 113.475 73.8552C113.163 73.6199 112.778 73.503 112.387 73.5252C112.083 73.5053 111.782 73.59 111.532 73.7653C111.443 73.8359 111.371 73.9259 111.322 74.0286C111.272 74.1313 111.247 74.2438 111.247 74.3577C111.25 74.4454 111.272 74.5313 111.312 74.6092C111.353 74.6871 111.41 74.755 111.48 74.8078C111.812 75.0161 112.186 75.1493 112.575 75.1977C113.63 75.3881 114.659 75.7002 115.642 76.1277C116.19 76.3854 116.655 76.7905 116.985 77.2977C117.265 77.7696 117.41 78.3091 117.405 78.8577C117.407 79.5246 117.211 80.177 116.842 80.7327C116.459 81.3096 115.913 81.7609 115.275 82.0302C114.466 82.3491 113.601 82.4997 112.732 82.4728C110.94 82.4728 109.732 82.1278 108.982 81.4378C108.296 80.7295 107.889 79.7974 107.835 78.8128Z" fill="white"/>
<path d="M118.305 71.7554H128.25V74.3654H124.927V82.3079H121.665V74.3654H118.342L118.305 71.7554Z" fill="white"/>
<path d="M128.775 77.0429C128.701 76.306 128.792 75.5619 129.041 74.8644C129.29 74.167 129.692 73.5337 130.216 73.0104C130.74 72.4871 131.373 72.0868 132.071 71.8386C132.769 71.5904 133.513 71.5005 134.25 71.5754C134.987 71.5279 135.726 71.6289 136.423 71.8724C137.12 72.1159 137.761 72.4969 138.308 72.9929C138.802 73.5215 139.183 74.1453 139.428 74.8261C139.673 75.507 139.777 76.2306 139.733 76.9529C139.766 77.9881 139.553 79.0166 139.11 79.9529C138.708 80.7337 138.081 81.3762 137.31 81.7979C136.404 82.2631 135.395 82.4903 134.378 82.4579C133.362 82.4901 132.353 82.2954 131.423 81.8879C130.623 81.4951 129.964 80.8669 129.533 80.0879C129.011 79.1594 128.749 78.1075 128.775 77.0429ZM132.03 77.0429C131.959 77.8531 132.168 78.6632 132.623 79.3379C132.833 79.5568 133.085 79.731 133.364 79.85C133.643 79.969 133.943 80.0303 134.246 80.0303C134.55 80.0303 134.85 79.969 135.129 79.85C135.408 79.731 135.66 79.5568 135.87 79.3379C136.326 78.6061 136.527 77.7435 136.44 76.8854C136.508 76.1118 136.295 75.3398 135.84 74.7104C135.637 74.4825 135.385 74.3029 135.104 74.1848C134.822 74.0667 134.518 74.0131 134.213 74.0279C133.913 74.0163 133.615 74.0731 133.341 74.194C133.067 74.3148 132.823 74.4966 132.63 74.7254C132.154 75.4026 131.931 76.2255 132 77.0504L132.03 77.0429Z" fill="white"/>
<path d="M141.443 71.7552H146.858C147.819 71.6806 148.772 71.9847 149.513 72.6027C149.817 72.9187 150.052 73.2946 150.203 73.7065C150.354 74.1185 150.418 74.5574 150.39 74.9952C150.417 75.4559 150.345 75.917 150.18 76.3477C150.014 76.7784 149.759 77.1688 149.43 77.4927C148.603 78.1565 147.554 78.4785 146.498 78.3927H144.75V82.3077H141.48L141.443 71.7552ZM144.713 76.2552H145.5C145.967 76.3025 146.437 76.1859 146.828 75.9252C146.948 75.8229 147.044 75.6952 147.109 75.5512C147.174 75.4072 147.206 75.2506 147.203 75.0927C147.207 74.9366 147.18 74.7812 147.123 74.6356C147.067 74.49 146.981 74.3573 146.873 74.2452C146.517 73.9747 146.071 73.8512 145.628 73.9002H144.75L144.713 76.2552Z" fill="white"/>
<path d="M148.005 30.4753H115.875C115.652 30.4756 115.435 30.5491 115.257 30.6846C115.08 30.8201 114.952 31.01 114.892 31.2253L113.25 36.4978C113.105 36.9638 112.837 37.382 112.474 37.7081C112.111 38.0342 111.666 38.2561 111.187 38.3503L110.175 38.5528C109.896 38.6084 109.644 38.7591 109.464 38.9794C109.283 39.1996 109.185 39.4756 109.185 39.7603V45.0553C109.185 45.1932 109.213 45.3296 109.267 45.4564C109.321 45.5831 109.4 45.6977 109.499 45.793C109.599 45.8883 109.717 45.9625 109.846 46.011C109.975 46.0595 110.112 46.0814 110.25 46.0753H115.83C115.83 44.8679 116.31 43.71 117.163 42.8562C118.017 42.0025 119.175 41.5228 120.382 41.5228C121.59 41.5228 122.748 42.0025 123.602 42.8562C124.455 43.71 124.935 44.8679 124.935 46.0753H138.6C138.648 44.8989 139.149 43.7866 139.998 42.9711C140.847 42.1556 141.979 41.7002 143.156 41.7002C144.334 41.7002 145.465 42.1556 146.315 42.9711C147.164 43.7866 147.665 44.8989 147.712 46.0753H148.027C148.162 46.0763 148.296 46.0507 148.42 45.9999C148.545 45.949 148.658 45.8741 148.754 45.7793C148.849 45.6844 148.925 45.5717 148.977 45.4474C149.028 45.3232 149.055 45.1899 149.055 45.0553V31.4953C149.054 31.3591 149.026 31.2245 148.973 31.0992C148.919 30.9739 148.841 30.8605 148.743 30.7656C148.646 30.6707 148.53 30.5961 148.403 30.5463C148.277 30.4965 148.141 30.4724 148.005 30.4753ZM126.12 36.7753C126.12 37.0227 126.022 37.26 125.848 37.4356C125.674 37.6112 125.437 37.7109 125.19 37.7128H121.68C121.433 37.7089 121.198 37.6087 121.024 37.4335C120.85 37.2583 120.752 37.0221 120.75 36.7753V33.2503C120.752 33.003 120.852 32.7665 121.027 32.5923C121.203 32.4181 121.44 32.3203 121.687 32.3203H125.197C125.442 32.3243 125.676 32.4237 125.848 32.5975C126.02 32.7713 126.118 33.0056 126.12 33.2503V36.7753ZM132.69 36.7753C132.69 37.024 132.591 37.2624 132.415 37.4383C132.24 37.6141 132.001 37.7128 131.752 37.7128H128.25C128.001 37.7128 127.763 37.6141 127.587 37.4383C127.411 37.2624 127.312 37.024 127.312 36.7753V33.2503C127.318 33.0056 127.42 32.7729 127.595 32.6019C127.77 32.4309 128.005 32.3353 128.25 32.3353H131.752C131.997 32.3353 132.232 32.4309 132.408 32.6019C132.583 32.7729 132.684 33.0056 132.69 33.2503V36.7753ZM139.26 36.7753C139.26 37.024 139.161 37.2624 138.985 37.4383C138.81 37.6141 138.571 37.7128 138.322 37.7128H134.82C134.571 37.7128 134.333 37.6141 134.157 37.4383C133.981 37.2624 133.882 37.024 133.882 36.7753V33.2503C133.884 33.003 133.984 32.7665 134.16 32.5923C134.335 32.4181 134.573 32.3203 134.82 32.3203H138.322C138.57 32.3203 138.807 32.4181 138.983 32.5923C139.158 32.7665 139.258 33.003 139.26 33.2503V36.7753ZM145.83 36.7753C145.83 37.024 145.731 37.2624 145.555 37.4383C145.38 37.6141 145.141 37.7128 144.892 37.7128H141.382C141.134 37.7109 140.897 37.6115 140.722 37.4361C140.546 37.2607 140.447 37.0234 140.445 36.7753V33.2503C140.447 33.003 140.547 32.7665 140.722 32.5923C140.898 32.4181 141.135 32.3203 141.382 32.3203H144.892C145.14 32.3203 145.377 32.4181 145.553 32.5923C145.728 32.7665 145.828 33.003 145.83 33.2503V36.7753Z" fill="white"/>
<path d="M120.353 43.3076C119.804 43.3091 119.268 43.4733 118.812 43.7795C118.357 44.0856 118.002 44.52 117.793 45.0276C117.585 45.5352 117.531 46.0933 117.64 46.6313C117.748 47.1694 118.014 47.6631 118.403 48.0501C118.792 48.4372 119.287 48.7001 119.826 48.8057C120.365 48.9114 120.922 48.8549 121.429 48.6435C121.935 48.4321 122.368 48.0753 122.672 47.6181C122.975 47.1609 123.136 46.624 123.135 46.0751C123.134 45.7107 123.061 45.35 122.921 45.0137C122.781 44.6774 122.575 44.3721 122.317 44.1151C122.059 43.8581 121.752 43.6545 121.415 43.516C121.078 43.3774 120.717 43.3066 120.353 43.3076Z" fill="white"/>
<path d="M143.137 43.3076C142.588 43.3076 142.051 43.4706 141.595 43.7758C141.138 44.0811 140.783 44.5149 140.573 45.0224C140.363 45.5299 140.309 46.0883 140.416 46.6268C140.524 47.1653 140.789 47.6597 141.178 48.0475C141.567 48.4353 142.062 48.699 142.601 48.8052C143.139 48.9114 143.698 48.8554 144.205 48.6442C144.712 48.433 145.144 48.0762 145.448 47.6189C145.752 47.1615 145.914 46.6243 145.912 46.0751C145.909 45.341 145.615 44.6383 145.095 44.1199C144.575 43.6016 143.872 43.3096 143.137 43.3076Z" fill="white"/>
<path d="M259.132 223.907L258.517 228.272L255.18 271.18H251.22L254.55 228.272L255.165 223.907H259.132Z" fill="#E0E0E0"/>
<path d="M279.15 223.907L279.765 228.272L283.095 271.18H287.055L283.725 228.272L283.11 223.907H279.15Z" fill="#E0E0E0"/>
<path d="M89.325 223.907L88.7025 228.272L85.3725 271.18H81.42L84.7425 228.272L85.365 223.907H89.325Z" fill="#E0E0E0"/>
<path d="M109.335 223.907L109.95 228.272L113.295 271.18H117.255L113.925 228.272L113.302 223.907H109.335Z" fill="#E0E0E0"/>
<path d="M114.712 180.317L108.532 223.907L107.917 228.272H103.957L104.572 223.907L110.752 180.317H114.712Z" fill="#E0E0E0"/>
<path d="M284.513 180.317L278.332 223.907L277.718 228.272H273.758L274.372 223.907L280.553 180.317H284.513Z" fill="#E0E0E0"/>
<path d="M285.157 216.685H103.672L107.047 204.55H288.525L285.157 216.685Z" fill="#F29100"/>
<path d="M281.017 216.685H99.5325L102.9 204.55H284.385L281.017 216.685Z" fill="#F29100"/>
<path opacity="0.1" d="M285.157 216.685H103.672L107.047 204.55H288.525L285.157 216.685Z" fill="black"/>
<path d="M290.212 186.385H108.727L112.102 174.25H293.58L290.212 186.385Z" fill="#F29100"/>
<path opacity="0.1" d="M290.212 186.385H108.727L112.102 174.25H293.58L290.212 186.385Z" fill="black"/>
<path d="M286.072 186.385H104.587L107.955 174.25H289.44L286.072 186.385Z" fill="white"/>
<path d="M286.072 186.385H104.587L107.955 174.25H289.44L286.072 186.385Z" fill="#F29100"/>
<path opacity="0.3" d="M286.072 186.385H104.587L107.955 174.25H289.44L286.072 186.385Z" fill="white"/>
<path d="M287.685 201.528H106.2L109.575 189.385H291.053L287.685 201.528Z" fill="#F29100"/>
<path d="M283.545 201.528H102.06L105.428 189.385H286.912L283.545 201.528Z" fill="#F29100"/>
<path opacity="0.1" d="M287.685 201.528H106.2L109.575 189.385H291.053L287.685 201.528Z" fill="black"/>
<path d="M283.545 201.528H102.06L105.428 189.385H286.912L283.545 201.528Z" fill="#F29100"/>
<path opacity="0.3" d="M283.545 201.528H102.06L105.428 189.385H286.912L283.545 201.528Z" fill="white"/>
<path d="M281.017 216.685H99.5325L102.9 204.55H284.385L281.017 216.685Z" fill="#F29100"/>
<path opacity="0.3" d="M281.017 216.685H99.5325L102.9 204.55H284.385L281.017 216.685Z" fill="white"/>
<path d="M263.707 223.907H83.025V228.272H263.707V223.907Z" fill="#F29100"/>
<path d="M263.707 223.907H83.025V228.272H263.707V223.907Z" fill="#F29100"/>
<path opacity="0.3" d="M263.707 223.907H83.025V228.272H263.707V223.907Z" fill="white"/>
<path d="M288.532 223.907H263.7V228.272H288.532V223.907Z" fill="#F29100"/>
<path opacity="0.1" d="M288.532 223.907H263.7V228.272H288.532V223.907Z" fill="black"/>
<path d="M149.64 270.73C149.27 270.759 148.901 270.658 148.598 270.445C148.503 270.359 148.433 270.251 148.392 270.13C148.351 270.01 148.342 269.88 148.365 269.755C148.37 269.677 148.395 269.602 148.438 269.537C148.482 269.473 148.542 269.421 148.613 269.388C149.235 269.088 150.923 270.138 151.11 270.28C151.134 270.292 151.154 270.31 151.168 270.333C151.182 270.355 151.189 270.381 151.189 270.408C151.189 270.434 151.182 270.46 151.168 270.483C151.154 270.505 151.134 270.523 151.11 270.535C150.629 270.655 150.136 270.72 149.64 270.73ZM148.89 269.605C148.838 269.596 148.785 269.596 148.733 269.605C148.705 269.619 148.681 269.641 148.664 269.667C148.647 269.693 148.637 269.724 148.635 269.755C148.618 269.837 148.622 269.922 148.647 270.002C148.672 270.082 148.717 270.155 148.778 270.213C149.375 270.484 150.053 270.519 150.675 270.31C150.133 269.958 149.526 269.718 148.89 269.605Z" fill="#F29100"/>
<path d="M151.035 270.535C151.013 270.542 150.989 270.542 150.967 270.535C150.435 270.235 149.415 269.035 149.535 268.442C149.553 268.342 149.605 268.251 149.683 268.185C149.761 268.119 149.86 268.083 149.962 268.082C150.062 268.069 150.163 268.077 150.259 268.107C150.355 268.137 150.443 268.187 150.517 268.255C151.125 268.78 151.17 270.347 151.177 270.415C151.177 270.439 151.171 270.463 151.159 270.484C151.147 270.505 151.13 270.522 151.11 270.535C151.086 270.543 151.059 270.543 151.035 270.535ZM150.052 268.337H150C149.827 268.337 149.812 268.435 149.805 268.472C149.737 268.825 150.36 269.702 150.885 270.115C150.874 269.515 150.683 268.933 150.337 268.442C150.259 268.372 150.157 268.335 150.052 268.337Z" fill="#F29100"/>
<path d="M151.8 272.98H157.222L157.905 260.433H152.482L151.8 272.98Z" fill="#E4897B"/>
<path d="M151.5 269.77H157.59C157.696 269.77 157.799 269.808 157.88 269.877C157.961 269.945 158.015 270.04 158.033 270.145L158.85 274.96C158.867 275.08 158.858 275.203 158.824 275.319C158.79 275.436 158.731 275.544 158.651 275.636C158.571 275.727 158.473 275.801 158.362 275.851C158.252 275.902 158.132 275.928 158.01 275.928C155.88 275.89 154.86 275.763 152.175 275.763C150.532 275.763 145.087 275.935 142.815 275.935C140.542 275.935 140.355 273.685 141.315 273.483C145.537 272.568 149.213 271.308 150.615 270.108C150.861 269.894 151.174 269.775 151.5 269.77Z" fill="#333333"/>
<path d="M203.91 165.7C202.013 169.727 200.033 173.68 197.978 177.617C195.923 181.555 193.808 185.455 191.558 189.332L190.703 190.787L190.485 191.155L190.155 191.672C189.923 192.04 189.705 192.287 189.473 192.602C188.649 193.596 187.743 194.52 186.765 195.362C185.008 196.887 183.165 198.309 181.245 199.622C177.526 202.173 173.648 204.486 169.635 206.545L167.385 203.132C170.73 200.335 174.135 197.507 177.323 194.65C178.913 193.225 180.48 191.762 181.823 190.3C182.454 189.632 183.04 188.923 183.578 188.177C183.66 188.027 183.795 187.855 183.833 187.75L184.118 187.195L184.868 185.74C188.738 177.94 192.518 169.945 196.478 162.107L203.91 165.7Z" fill="#E4897B"/>
<path d="M206.175 161.77C207.758 166.622 197.76 180.903 197.76 180.903L187.223 175C189.087 170.543 191.407 166.291 194.145 162.31C198.278 156.61 204.45 156.452 206.175 161.77Z" fill="#F29100"/>
<path d="M167.587 203.02L162.54 205.938L166.192 211.308C166.192 211.308 170.1 209.335 170.512 205.308L167.587 203.02Z" fill="#E4897B"/>
<path d="M159.323 212.537L163.455 212.125L166.193 211.308L162.54 205.938L159.323 212.537Z" fill="#E4897B"/>
<path d="M152.482 260.433H157.905L157.545 266.905H152.122L152.482 260.433Z" fill="#CE6F64"/>
<path d="M201.735 272.98H196.312L192.352 260.433H197.775L201.735 272.98Z" fill="#E4897B"/>
<path d="M195.3 269.77H201.39C201.497 269.769 201.6 269.806 201.681 269.875C201.763 269.944 201.816 270.04 201.833 270.145L202.658 274.96C202.674 275.081 202.664 275.204 202.628 275.32C202.593 275.437 202.533 275.544 202.453 275.636C202.373 275.728 202.274 275.801 202.163 275.851C202.052 275.902 201.932 275.928 201.81 275.928C199.688 275.89 198.66 275.763 195.983 275.763C194.333 275.763 188.895 275.935 186.615 275.935C184.335 275.935 184.163 273.685 185.115 273.483C189.338 272.568 193.013 271.308 194.408 270.108C194.656 269.894 194.972 269.774 195.3 269.77Z" fill="#333333"/>
<path d="M197.775 260.433H192.352L194.4 266.905H199.822L197.775 260.433Z" fill="#CE6F64"/>
<path d="M193.5 270.73C193.128 270.759 192.757 270.658 192.45 270.445C192.356 270.359 192.285 270.251 192.244 270.13C192.204 270.01 192.194 269.88 192.218 269.755C192.223 269.678 192.248 269.603 192.292 269.538C192.335 269.474 192.395 269.422 192.465 269.388C193.095 269.088 194.782 270.138 194.97 270.28C194.992 270.296 195.009 270.318 195.02 270.343C195.03 270.368 195.034 270.396 195.03 270.423C195.025 270.449 195.013 270.474 194.994 270.494C194.975 270.514 194.951 270.528 194.925 270.535C194.459 270.652 193.981 270.718 193.5 270.73ZM192.75 269.605C192.695 269.596 192.64 269.596 192.585 269.605C192.557 269.619 192.534 269.641 192.518 269.667C192.503 269.694 192.494 269.724 192.495 269.755C192.478 269.837 192.482 269.922 192.507 270.002C192.532 270.082 192.577 270.155 192.638 270.213C193.232 270.483 193.908 270.518 194.527 270.31C193.988 269.958 193.384 269.718 192.75 269.605Z" fill="#F29100"/>
<path d="M194.865 270.535C194.843 270.542 194.819 270.542 194.797 270.535C194.265 270.235 193.237 269.035 193.357 268.442C193.378 268.342 193.432 268.251 193.511 268.186C193.59 268.12 193.69 268.084 193.792 268.082C193.892 268.07 193.993 268.078 194.089 268.108C194.184 268.138 194.273 268.188 194.347 268.255C194.947 268.78 195 270.347 195 270.415C195 270.439 194.993 270.463 194.981 270.484C194.97 270.505 194.953 270.522 194.932 270.535C194.91 270.542 194.887 270.542 194.865 270.535ZM193.882 268.337H193.822C193.657 268.337 193.635 268.435 193.627 268.472C193.56 268.825 194.19 269.702 194.707 270.115C194.702 269.515 194.513 268.932 194.167 268.442C194.088 268.374 193.987 268.336 193.882 268.337Z" fill="#F29100"/>
<path d="M228.825 159.827C229.838 160.03 230.692 160.24 231.6 160.487C232.507 160.735 233.378 160.99 234.263 161.237C236.023 161.782 237.773 162.405 239.513 163.105C241.23 163.795 242.925 164.567 244.598 165.437C245.438 165.857 246.263 166.322 247.08 166.795C247.485 167.035 247.89 167.297 248.295 167.545L248.902 167.927C248.94 167.927 249.263 168.16 249.473 168.317C249.703 168.5 249.923 168.695 250.133 168.902C250.872 169.691 251.389 170.662 251.633 171.715C251.815 172.486 251.876 173.28 251.812 174.07C251.715 175.243 251.462 176.398 251.062 177.505C250.397 179.333 249.553 181.092 248.543 182.755C246.669 185.907 244.499 188.873 242.062 191.612L238.732 189.272C240.277 186.272 241.8 183.092 243.045 180.032C243.653 178.575 244.14 177.07 244.5 175.532C244.641 174.961 244.705 174.373 244.688 173.785C244.688 173.59 244.62 173.477 244.612 173.53C244.644 173.733 244.742 173.92 244.89 174.062C244.935 174.12 244.988 174.17 245.048 174.212C245.048 174.25 245.22 174.332 245.048 174.25L244.508 173.98C244.148 173.8 243.758 173.605 243.428 173.44C242.678 173.102 241.928 172.75 241.178 172.435C239.678 171.782 238.125 171.197 236.558 170.642C234.99 170.087 233.408 169.577 231.803 169.097C231 168.857 230.197 168.617 229.395 168.4L227.055 167.785L228.825 159.827Z" fill="#E4897B"/>
<path d="M238.17 189.475L234.885 193.84L241.635 194.305C241.635 194.305 243.885 189.903 241.508 188.913L238.17 189.475Z" fill="#E4897B"/>
<path d="M235.268 199.953L240.878 200.065L241.658 194.305L234.885 193.84L235.268 199.953Z" fill="#E4897B"/>
<path d="M197.19 204.917C197.19 204.917 159.69 203.627 154.68 218.545C149.183 234.872 150.33 265.127 150.33 265.127H159.75C159.75 265.127 163.372 243.535 165.855 232.585C168.435 221.215 205.05 226.382 209.7 222.227C213.412 218.912 215.287 213.302 215.782 204.917H197.19Z" fill="#F29100"/>
<path opacity="0.7" d="M197.19 204.917C197.19 204.917 159.69 203.627 154.68 218.545C149.183 234.872 150.33 265.127 150.33 265.127H159.75C159.75 265.127 163.372 243.535 165.855 232.585C168.435 221.215 205.05 226.382 209.7 222.227C213.412 218.912 215.287 213.302 215.782 204.917H197.19Z" fill="black"/>
<path d="M207.473 204.917C207.473 204.917 170.67 206.807 173.25 222.325C176.07 239.32 191.94 265.127 191.94 265.127H201.412C201.412 265.127 194.948 240.317 191.955 229.502C189.893 222.002 215.453 226.382 220.103 222.227C223.815 218.912 225.69 213.302 226.185 204.917H207.473Z" fill="#F29100"/>
<path opacity="0.6" d="M207.473 204.917C207.473 204.917 170.67 206.807 173.25 222.325C176.07 239.32 191.94 265.127 191.94 265.127H201.412C201.412 265.127 194.948 240.317 191.955 229.502C189.893 222.002 215.453 226.382 220.103 222.227C223.815 218.912 225.69 213.302 226.185 204.917H207.473Z" fill="black"/>
<path d="M160.358 265.353H149.7L149.408 261.978L161.048 262.278L160.358 265.353Z" fill="#F29100"/>
<path d="M201.975 265.353H191.317L189.247 261.978H201.907L201.975 265.353Z" fill="#F29100"/>
<path d="M206.31 162.385C204.232 161.38 201.81 162.22 199.207 166.225C196.605 170.23 194.333 176.927 194.062 178.84L197.76 180.902C197.76 180.902 207 167.717 206.31 162.385Z" fill="#F29100"/>
<path opacity="0.1" d="M206.31 162.385C204.232 161.38 201.81 162.22 199.207 166.225C196.605 170.23 194.333 176.927 194.062 178.84L197.76 180.902C197.76 180.902 207 167.717 206.31 162.385Z" fill="black"/>
<path d="M230.318 157.75C230.138 158.447 229.965 159.145 229.808 159.842C229.808 159.842 229.808 159.88 229.808 159.902C228.672 164.847 227.835 169.857 227.303 174.902C225.72 189.392 226.508 201.67 226.2 204.902H197.19C192.69 174.415 199.935 158.05 199.935 158.05C199.935 158.05 202.358 157.39 205.433 156.91C206.363 156.76 207.353 156.632 208.35 156.542C212.454 156.302 216.569 156.302 220.673 156.542C221.558 156.587 222.45 156.655 223.313 156.737C227.063 157.12 230.318 157.75 230.318 157.75Z" fill="#F29100"/>
<path d="M223.313 156.753L222.495 157.878C222.338 158.095 218.573 163.165 210.645 164.59L209.94 164.718L209.288 164.41C206.79 163.233 205.365 161.65 205.058 159.715C204.912 158.768 205.042 157.8 205.433 156.925C206.363 156.775 207.353 156.648 208.35 156.558C212.454 156.317 216.569 156.317 220.673 156.558C221.558 156.603 222.45 156.67 223.313 156.753Z" fill="white"/>
<path d="M207.345 181.495C206.987 181.492 206.632 181.417 206.304 181.274C205.975 181.131 205.679 180.923 205.432 180.662C204.36 179.59 203.842 177.662 204.052 175.412C204.39 171.887 206.407 168.962 208.657 168.76C209.054 168.725 209.452 168.781 209.824 168.923C210.195 169.064 210.53 169.288 210.802 169.577C211.875 170.657 212.392 172.577 212.182 174.827C211.845 178.36 209.827 181.285 207.585 181.487L207.345 181.495ZM208.897 169.495H208.725C206.887 169.66 205.095 172.405 204.802 175.495C204.615 177.445 205.065 179.245 205.965 180.13C206.16 180.342 206.402 180.507 206.671 180.611C206.941 180.715 207.23 180.756 207.517 180.73C209.347 180.565 211.147 177.827 211.44 174.73C211.62 172.78 211.177 170.98 210.27 170.095C210.093 169.909 209.88 169.762 209.644 169.661C209.408 169.561 209.154 169.509 208.897 169.51V169.495Z" fill="white"/>
<path d="M220.17 142.683C219.187 146.643 218.04 153.933 220.673 156.558C220.673 156.558 217.372 161.058 210.247 162.378C204.877 159.843 208.35 156.558 208.35 156.558C212.85 155.5 212.85 152.223 212.272 149.14L220.17 142.683Z" fill="#E4897B"/>
<path d="M216.952 145.315L212.25 149.132C212.405 149.853 212.496 150.586 212.52 151.322C214.222 151.082 216.637 149.222 216.907 147.452C217.05 146.748 217.066 146.024 216.952 145.315Z" fill="#CE6F64"/>
<path d="M208.2 130.48C205.47 131.613 203.633 139.09 206.955 140.808C210.278 142.525 213.36 128.343 208.2 130.48Z" fill="#333333"/>
<path d="M220.95 136.75C220.342 142.12 220.26 145.278 217.402 148.038C216.506 148.946 215.377 149.591 214.14 149.901C212.902 150.21 211.602 150.173 210.384 149.794C209.166 149.414 208.075 148.707 207.232 147.749C206.389 146.791 205.826 145.619 205.605 144.363C204.705 139.533 205.845 131.568 211.215 129.43C212.35 128.93 213.598 128.741 214.83 128.884C216.062 129.026 217.234 129.494 218.226 130.239C219.217 130.985 219.992 131.981 220.471 133.125C220.95 134.27 221.115 135.521 220.95 136.75Z" fill="#E4897B"/>
<path d="M216.75 124.96C219.69 123.107 224.182 124.96 223.275 127.487C221.82 131.575 225.562 127.653 225.525 132.49C225.525 135.648 221.962 143.132 219.712 142.938C217.462 142.743 216.6 138.76 217.965 134.335C218.985 131.005 216.172 132.318 212.085 132.723C203.79 133.533 198.082 122.665 207.63 123.25C216.862 123.812 215.88 118.75 215.88 118.75C215.88 118.75 219.202 124.18 213.96 124.203C208.717 124.225 210.652 128.792 216.75 124.96Z" fill="#333333"/>
<path d="M223.072 142.63C222.294 143.771 221.112 144.575 219.765 144.88C217.995 145.262 217.305 143.672 217.957 142.075C218.542 140.635 220.17 138.7 221.872 139.03C223.575 139.36 224.017 141.25 223.072 142.63Z" fill="#E4897B"/>
<path d="M221.805 129.085C222.534 128.988 223.231 128.721 223.837 128.303C224.443 127.886 224.942 127.332 225.293 126.685C225.293 126.685 225.435 130.938 221.805 129.085Z" fill="#333333"/>
<path d="M212.73 138.25C212.73 138.685 212.453 139.038 212.168 139.038C211.883 139.038 211.673 138.685 211.695 138.25C211.718 137.815 211.965 137.455 212.25 137.455C212.535 137.455 212.753 137.778 212.73 138.25Z" fill="#333333"/>
<path d="M207.787 138.25C207.787 138.685 207.51 139.038 207.225 139.038C206.94 139.038 206.73 138.685 206.753 138.25C206.775 137.815 207.022 137.455 207.307 137.455C207.592 137.455 207.81 137.778 207.787 138.25Z" fill="#333333"/>
<path d="M209.348 138.43C208.753 139.775 207.984 141.036 207.06 142.18C207.355 142.393 207.694 142.539 208.051 142.606C208.409 142.674 208.778 142.661 209.13 142.57L209.348 138.43Z" fill="#DE5753"/>
<path d="M210.352 143.77C210.319 143.77 210.286 143.757 210.262 143.733C210.238 143.709 210.225 143.676 210.225 143.643C210.224 143.626 210.226 143.608 210.232 143.592C210.238 143.577 210.248 143.562 210.26 143.55C210.272 143.538 210.286 143.529 210.302 143.523C210.318 143.516 210.335 143.514 210.352 143.515C210.906 143.52 211.454 143.401 211.955 143.166C212.456 142.931 212.898 142.586 213.247 142.158C213.267 142.13 213.297 142.11 213.33 142.103C213.364 142.096 213.398 142.102 213.427 142.12C213.451 142.144 213.465 142.176 213.465 142.21C213.465 142.244 213.451 142.276 213.427 142.3C213.062 142.764 212.594 143.138 212.061 143.393C211.528 143.648 210.943 143.777 210.352 143.77Z" fill="#333333"/>
<path d="M214.312 136.615C214.272 136.615 214.232 136.606 214.195 136.587C214.159 136.569 214.127 136.543 214.102 136.51C213.926 136.25 213.689 136.037 213.412 135.888C213.135 135.739 212.827 135.659 212.512 135.655C212.479 135.66 212.444 135.658 212.411 135.649C212.378 135.64 212.347 135.624 212.321 135.602C212.294 135.58 212.273 135.553 212.258 135.522C212.244 135.491 212.236 135.457 212.235 135.423C212.231 135.354 212.254 135.287 212.298 135.235C212.343 135.183 212.407 135.151 212.475 135.145C212.878 135.139 213.276 135.233 213.633 135.419C213.991 135.605 214.296 135.877 214.522 136.21C214.561 136.266 214.576 136.335 214.565 136.402C214.554 136.469 214.517 136.53 214.462 136.57C214.418 136.6 214.366 136.615 214.312 136.615Z" fill="#333333"/>
<path d="M205.725 136.518C205.685 136.525 205.645 136.525 205.605 136.518C205.545 136.484 205.5 136.429 205.48 136.363C205.461 136.297 205.468 136.226 205.5 136.165C205.685 135.795 205.953 135.473 206.284 135.224C206.614 134.976 206.998 134.807 207.405 134.733C207.472 134.724 207.539 134.742 207.592 134.783C207.645 134.823 207.681 134.884 207.69 134.95C207.699 135.017 207.681 135.086 207.64 135.14C207.6 135.195 207.54 135.231 207.472 135.243C207.149 135.309 206.846 135.449 206.586 135.652C206.326 135.855 206.116 136.115 205.972 136.413C205.945 136.451 205.907 136.481 205.863 136.499C205.82 136.518 205.772 136.524 205.725 136.518Z" fill="#333333"/>
<path d="M229.808 159.827V159.872C229.808 159.872 229.808 159.91 229.808 159.932C228.672 164.878 227.835 169.887 227.303 174.932C224.145 170.485 223.215 165.835 223.77 162.932C224.377 159.722 227.91 159.632 229.808 159.827Z" fill="#F29100"/>
<path opacity="0.1" d="M229.808 159.827V159.872C229.808 159.872 229.808 159.91 229.808 159.932C228.672 164.878 227.835 169.887 227.303 174.932C224.145 170.485 223.215 165.835 223.77 162.932C224.377 159.722 227.91 159.632 229.808 159.827Z" fill="black"/>
<path d="M225 158.253C228.96 154.968 243.397 162.715 243.397 162.715L234.892 173.373C234.892 173.373 233.392 173.035 227.392 170.335C221.1 167.5 220.747 161.77 225 158.253Z" fill="#F29100"/>
<path d="M146.377 208.502L145.312 223.907H137.565L137.355 220.855L136.71 211.555L136.5 208.502H146.377Z" fill="#F29100"/>
<path opacity="0.2" d="M146.377 208.502L145.312 223.907H137.565L137.355 220.855L136.71 211.555L136.5 208.502H146.377Z" fill="black"/>
<path d="M147.225 208H135.66V208.997H147.225V208Z" fill="#E6E6E6"/>
<path d="M146.513 207.002H136.365V208H146.513V207.002Z" fill="#F5F5F5"/>
<path d="M141 211.555V220.855H137.258L136.62 211.555H141Z" fill="#F5F5F5"/>
</svg>
